<svg width="46" height="46" viewBox="0 0 46 46" fill="none" xmlns="http://www.w3.org/2000/svg">
<rect width="46" height="46" rx="23" fill="#D6629A"/>
<path d="M15.2081 19.3333C15.2083 18.4643 15.4331 17.61 15.8608 16.8534C16.2885 16.0968 16.9044 15.4637 17.6489 15.0154C18.3935 14.567 19.2412 14.3188 20.11 14.2947C20.9787 14.2706 21.8389 14.4714 22.6072 14.8778C23.3754 15.2842 24.0255 15.8822 24.4945 16.6139C24.9634 17.3456 25.2353 18.1861 25.2836 19.0538C25.332 19.9216 25.1552 20.7871 24.7705 21.5663C24.3857 22.3456 23.8061 23.0122 23.0878 23.5014C24.6346 24.0688 25.9763 25.0861 26.9402 26.4224C27.904 27.7587 28.4459 29.3529 28.4961 30.9998C28.494 31.1773 28.4233 31.3472 28.2989 31.4739C28.1744 31.6006 28.0059 31.6743 27.8284 31.6796C27.6509 31.6849 27.4782 31.6214 27.3464 31.5024C27.2146 31.3834 27.1339 31.2181 27.1211 31.041C27.0665 29.2548 26.3186 27.5601 25.0358 26.316C23.7531 25.0718 22.0363 24.376 20.2493 24.376C18.4623 24.376 16.7455 25.0718 15.4628 26.316C14.18 27.5601 13.4321 29.2548 13.3775 31.041C13.3683 31.2205 13.2892 31.3893 13.1571 31.5112C13.025 31.6331 12.8504 31.6984 12.6707 31.6931C12.4911 31.6878 12.3206 31.6124 12.1959 31.483C12.0712 31.3535 12.0021 31.1804 12.0034 31.0007C12.0534 29.3536 12.5952 27.7593 13.5591 26.4228C14.523 25.0863 15.8648 24.0688 17.4118 23.5014C16.7324 23.0391 16.1764 22.4176 15.7923 21.6911C15.4082 20.9646 15.2076 20.1551 15.2081 19.3333ZM20.2498 15.6667C19.2773 15.6667 18.3447 16.053 17.657 16.7406C16.9694 17.4282 16.5831 18.3609 16.5831 19.3333C16.5831 20.3058 16.9694 21.2384 17.657 21.9261C18.3447 22.6137 19.2773 23 20.2498 23C21.2222 23 22.1549 22.6137 22.8425 21.9261C23.5301 21.2384 23.9164 20.3058 23.9164 19.3333C23.9164 18.3609 23.5301 17.4282 22.8425 16.7406C22.1549 16.053 21.2222 15.6667 20.2498 15.6667ZM27.8489 19.3333C27.7133 19.3333 27.5813 19.3425 27.4511 19.3608C27.3602 19.3771 27.267 19.3749 27.177 19.3544C27.087 19.3338 27.002 19.2954 26.9272 19.2413C26.8524 19.1872 26.7892 19.1186 26.7415 19.0396C26.6937 18.9606 26.6624 18.8727 26.6493 18.7813C26.6363 18.6899 26.6418 18.5968 26.6655 18.5076C26.6892 18.4184 26.7306 18.3348 26.7873 18.262C26.844 18.1891 26.9148 18.1284 26.9954 18.0835C27.0761 18.0385 27.165 18.0103 27.2568 18.0005C28.1685 17.8687 29.0981 18.0438 29.8994 18.4982C30.7007 18.9526 31.3281 19.6606 31.683 20.5106C32.0378 21.3607 32.1 22.3047 31.8596 23.1939C31.6192 24.0832 31.0899 24.8672 30.3551 25.4228C31.4353 25.9064 32.3524 26.6923 32.9959 27.6857C33.6394 28.679 33.9816 29.8373 33.9814 31.0208C33.9814 31.2032 33.909 31.378 33.7801 31.507C33.6511 31.6359 33.4763 31.7083 33.2939 31.7083C33.1116 31.7083 32.9367 31.6359 32.8078 31.507C32.6789 31.378 32.6064 31.2032 32.6064 31.0208C32.6063 29.998 32.2768 29.0023 31.6665 28.1814C31.0563 27.3605 30.1979 26.758 29.2184 26.4632L28.7289 26.3165V24.7802L29.1048 24.5886C29.6619 24.3064 30.1076 23.8447 30.3701 23.278C30.6325 22.7113 30.6963 22.0727 30.5511 21.4653C30.406 20.8579 30.0604 20.3171 29.5701 19.9303C29.0798 19.5435 28.4734 19.3332 27.8489 19.3333Z" fill="white"/>
</svg>
