<svg width="16" height="17" viewBox="0 0 16 17" fill="none" xmlns="http://www.w3.org/2000/svg">
<path d="M5.599 6.55599L7.1998 1.29999L8.8014 6.55679L13.5998 8.31119L8.83821 10.2024L7.1998 15.7L5.5614 10.2024L0.799805 8.31119L5.599 6.55599Z" stroke="white" stroke-width="1.6" stroke-linejoin="round"/>
<path d="M13.6676 11.359C13.6656 11.3425 13.6576 11.3273 13.645 11.3163C13.6324 11.3054 13.6163 11.2995 13.5996 11.2998C13.583 11.2995 13.5668 11.3054 13.5542 11.3163C13.5416 11.3273 13.5336 11.3425 13.5316 11.359C13.3724 12.9542 13.2556 13.4206 11.6612 13.571C11.6446 13.5722 11.629 13.5796 11.6176 13.5918C11.6062 13.6039 11.5998 13.6199 11.5996 13.6366C11.5996 13.671 11.626 13.699 11.6612 13.7022C13.2332 13.8502 13.37 14.419 13.5316 16.0406C13.5338 16.0571 13.5419 16.0722 13.5544 16.0831C13.5669 16.094 13.583 16.1 13.5996 16.0998C13.6348 16.0998 13.6636 16.0742 13.6676 16.0406C13.8292 14.419 13.9652 13.8502 15.538 13.7022C15.5546 13.701 15.5702 13.6936 15.5816 13.6814C15.593 13.6693 15.5995 13.6533 15.5996 13.6366C15.5995 13.6199 15.593 13.6039 15.5816 13.5918C15.5702 13.5796 15.5546 13.5722 15.538 13.571C13.9436 13.4206 13.826 12.955 13.6676 11.359Z" fill="white" stroke="white" stroke-width="0.8"/>
<path d="M7.2 16.5C6.848 16.5 6.536 16.268 6.432 15.932L4.904 10.804L0.504 9.052C0.2 8.932 0 8.636 0 8.3C0 7.964 0.216 7.676 0.528 7.556L4.952 5.94L6.432 1.068C6.536 0.732 6.848 0.5 7.2 0.5C7.552 0.5 7.864 0.732 7.968 1.068L9.456 5.94L13.88 7.556C14.192 7.668 14.4 7.964 14.408 8.3C14.416 8.636 14.208 8.932 13.904 9.052L9.504 10.796L7.976 15.924C7.872 16.26 7.56 16.492 7.208 16.492L7.2 16.5ZM3.048 8.34L5.856 9.46C6.08 9.548 6.256 9.74 6.328 9.972L7.2 12.9L8.072 9.972C8.144 9.74 8.312 9.548 8.544 9.46L11.352 8.34L8.52 7.308C8.288 7.22 8.104 7.028 8.032 6.788L7.2 4.044L6.368 6.788C6.296 7.028 6.112 7.22 5.88 7.308L3.048 8.34ZM13.6 16.5C13.36 16.5 13.16 16.316 13.136 16.076C12.976 14.516 12.912 14.22 11.624 14.1C11.5083 14.0891 11.4009 14.0355 11.3225 13.9498C11.2441 13.864 11.2005 13.7522 11.2 13.636C11.2 13.396 11.384 13.196 11.624 13.172C12.912 13.052 12.984 12.852 13.136 11.316C13.1508 11.2034 13.206 11.1001 13.2914 11.0252C13.3768 10.9503 13.4865 10.9091 13.6 10.9091C13.7135 10.9091 13.8232 10.9503 13.9086 11.0252C13.994 11.1001 14.0492 11.2034 14.064 11.316C14.216 12.852 14.288 13.052 15.576 13.172C15.816 13.196 16 13.396 16 13.636C16 13.876 15.824 14.076 15.584 14.1C14.296 14.22 14.224 14.516 14.064 16.076C14.04 16.316 13.84 16.492 13.6 16.492V16.5Z" fill="#E65F2B"/>
</svg>
